{
	"asset":{
		"generator":"Khronos glTF Blender I/O v5.0.21",
		"version":"2.0"
	},
	"scene":0,
	"scenes":[
		{
			"name":"Scene",
			"nodes":[
				0,
				1,
				2
			]
		}
	],
	"nodes":[
		{
			"mesh":0,
			"name":"Cube",
			"translation":[
				0,
				-0.010556777007877827,
				0.30262765288352966
			]
		},
		{
			"name":"Empty",
			"rotation":[
				0.5,
				0.5,
				-0.5,
				0.5
			],
			"scale":[
				1.0914313793182373,
				1.0914313793182373,
				1.0914313793182373
			],
			"translation":[
				0,
				0.612715482711792,
				0.21648433804512024
			]
		},
		{
			"name":"Empty.001",
			"rotation":[
				0,
				-0.7071066498756409,
				0.70710688829422,
				3.090861255827804e-08
			],
			"scale":[
				1.086158037185669,
				1.086158037185669,
				1.086158037185669
			],
			"translation":[
				0.01407570019364357,
				0.6263686418533325,
				0
			]
		}
	],
	"materials":[
		{
			"doubleSided":true,
			"name":"Material.002",
			"pbrMetallicRoughness":{
				"baseColorTexture":{
					"index":0
				},
				"metallicFactor":0,
				"roughnessFactor":0.5
			}
		}
	],
	"meshes":[
		{
			"name":"Cube.002",
			"primitives":[
				{
					"attributes":{
						"POSITION":0,
						"NORMAL":1,
						"TEXCOORD_0":2
					},
					"indices":3,
					"material":0
				}
			]
		}
	],
	"textures":[
		{
			"sampler":0,
			"source":0
		}
	],
	"images":[
		{
			"mimeType":"image/png",
			"name":"texture",
			"uri":"texture.png"
		}
	],
	"accessors":[
		{
			"bufferView":0,
			"componentType":5126,
			"count":574,
			"max":[
				0.9659938812255859,
				1.2649973630905151,
				2.397681713104248
			],
			"min":[
				-0.9659938812255859,
				0.16168023645877838,
				-2.5171868801116943
			],
			"type":"VEC3"
		},
		{
			"bufferView":1,
			"componentType":5126,
			"count":574,
			"type":"VEC3"
		},
		{
			"bufferView":2,
			"componentType":5126,
			"count":574,
			"type":"VEC2"
		},
		{
			"bufferView":3,
			"componentType":5123,
			"count":990,
			"type":"SCALAR"
		}
	],
	"bufferViews":[
		{
			"buffer":0,
			"byteLength":6888,
			"byteOffset":0,
			"target":34962
		},
		{
			"buffer":0,
			"byteLength":6888,
			"byteOffset":6888,
			"target":34962
		},
		{
			"buffer":0,
			"byteLength":4592,
			"byteOffset":13776,
			"target":34962
		},
		{
			"buffer":0,
			"byteLength":1980,
			"byteOffset":18368,
			"target":34963
		}
	],
	"samplers":[
		{
			"magFilter":9729,
			"minFilter":9987
		}
	],
	"buffers":[
		{
			"byteLength":20348,
			"uri":"xjs.bin"
		}
	]
}
