{
	"asset":{
		"generator":"Khronos glTF Blender I/O v5.0.21",
		"version":"2.0"
	},
	"scene":0,
	"scenes":[
		{
			"name":"Scene",
			"nodes":[
				0,
				1,
				2,
				3
			]
		}
	],
	"nodes":[
		{
			"mesh":0,
			"name":"Cube"
		},
		{
			"name":"Empty",
			"rotation":[
				0,
				-0.7071066498756409,
				0.7071069478988647,
				3.0908616110991716e-08
			],
			"scale":[
				1.2832789421081543,
				1.2832789421081543,
				1.2832789421081543
			],
			"translation":[
				-0.09631848335266113,
				0.8055713176727295,
				0
			]
		},
		{
			"name":"Empty.001",
			"rotation":[
				0.4025473892688751,
				0.5816879272460938,
				-0.4054030776023865,
				0.5790019631385803
			],
			"scale":[
				1.0247316360473633,
				1.0247316360473633,
				1.0247316360473633
			],
			"translation":[
				-0.05943881720304489,
				0.40112200379371643,
				0.02565789222717285
			]
		},
		{
			"mesh":1,
			"name":"Cylinder",
			"rotation":[
				-0.7071067690849304,
				0,
				0,
				0.7071068286895752
			],
			"scale":[
				-0.485422283411026,
				-0.485422283411026,
				-0.485422283411026
			]
		}
	],
	"materials":[
		{
			"doubleSided":true,
			"name":"Material",
			"pbrMetallicRoughness":{
				"baseColorTexture":{
					"index":0
				},
				"metallicFactor":0,
				"roughnessFactor":0.5
			}
		}
	],
	"meshes":[
		{
			"name":"Cube",
			"primitives":[
				{
					"attributes":{
						"POSITION":0,
						"NORMAL":1,
						"TEXCOORD_0":2
					},
					"indices":3,
					"material":0
				}
			]
		},
		{
			"name":"Cylinder",
			"primitives":[
				{
					"attributes":{
						"POSITION":4,
						"NORMAL":5,
						"TEXCOORD_0":6
					},
					"indices":7
				}
			]
		}
	],
	"textures":[
		{
			"sampler":0,
			"source":0
		}
	],
	"images":[
		{
			"mimeType":"image/png",
			"name":"texture",
			"uri":"texture.png"
		}
	],
	"accessors":[
		{
			"bufferView":0,
			"componentType":5126,
			"count":290,
			"max":[
				2.8279662132263184,
				1.4182683229446411,
				1.0000001192092896
			],
			"min":[
				-3.079744577407837,
				0.2170313149690628,
				-1.0000001192092896
			],
			"type":"VEC3"
		},
		{
			"bufferView":1,
			"componentType":5126,
			"count":290,
			"type":"VEC3"
		},
		{
			"bufferView":2,
			"componentType":5126,
			"count":290,
			"type":"VEC2"
		},
		{
			"bufferView":3,
			"componentType":5123,
			"count":540,
			"type":"SCALAR"
		},
		{
			"bufferView":4,
			"componentType":5126,
			"count":60,
			"max":[
				-2.575990676879883,
				-0.7748098373413086,
				0.42586299777030945
			],
			"min":[
				-4.4781036376953125,
				-2.7748098373413086,
				-1.5741369724273682
			],
			"type":"VEC3"
		},
		{
			"bufferView":5,
			"componentType":5126,
			"count":60,
			"type":"VEC3"
		},
		{
			"bufferView":6,
			"componentType":5126,
			"count":60,
			"type":"VEC2"
		},
		{
			"bufferView":7,
			"componentType":5123,
			"count":108,
			"type":"SCALAR"
		}
	],
	"bufferViews":[
		{
			"buffer":0,
			"byteLength":3480,
			"byteOffset":0,
			"target":34962
		},
		{
			"buffer":0,
			"byteLength":3480,
			"byteOffset":3480,
			"target":34962
		},
		{
			"buffer":0,
			"byteLength":2320,
			"byteOffset":6960,
			"target":34962
		},
		{
			"buffer":0,
			"byteLength":1080,
			"byteOffset":9280,
			"target":34963
		},
		{
			"buffer":0,
			"byteLength":720,
			"byteOffset":10360,
			"target":34962
		},
		{
			"buffer":0,
			"byteLength":720,
			"byteOffset":11080,
			"target":34962
		},
		{
			"buffer":0,
			"byteLength":480,
			"byteOffset":11800,
			"target":34962
		},
		{
			"buffer":0,
			"byteLength":216,
			"byteOffset":12280,
			"target":34963
		}
	],
	"samplers":[
		{
			"magFilter":9729,
			"minFilter":9987
		}
	],
	"buffers":[
		{
			"byteLength":12496,
			"uri":"mrbeast.bin"
		}
	]
}
