{
	"asset":{
		"generator":"Khronos glTF Blender I/O v5.0.21",
		"version":"2.0"
	},
	"scene":0,
	"scenes":[
		{
			"name":"Scene",
			"nodes":[
				0,
				1,
				2
			]
		}
	],
	"nodes":[
		{
			"mesh":0,
			"name":"Cube"
		},
		{
			"name":"Empty",
			"rotation":[
				0.002608274342492223,
				0.7071020007133484,
				0.7071019411087036,
				0.0026078748051077127
			],
			"scale":[
				-1.1032078266143799,
				-1.1032078266143799,
				-1.1032078266143799
			],
			"translation":[
				-0.28857898712158203,
				0.6656535267829895,
				0
			]
		},
		{
			"name":"Empty.001",
			"rotation":[
				0.5,
				0.5,
				-0.5,
				0.5
			],
			"scale":[
				0.5861334204673767,
				0.5861334204673767,
				0.5861334204673767
			],
			"translation":[
				0,
				0.6758116483688354,
				0.002199152484536171
			]
		}
	],
	"materials":[
		{
			"doubleSided":true,
			"name":"Material",
			"pbrMetallicRoughness":{
				"baseColorTexture":{
					"index":0
				},
				"metallicFactor":0,
				"roughnessFactor":0.5
			}
		}
	],
	"meshes":[
		{
			"name":"Cube",
			"primitives":[
				{
					"attributes":{
						"POSITION":0,
						"NORMAL":1,
						"TEXCOORD_0":2
					},
					"indices":3,
					"material":0
				}
			]
		}
	],
	"textures":[
		{
			"sampler":0,
			"source":0
		}
	],
	"images":[
		{
			"mimeType":"image/png",
			"name":"texture",
			"uri":"texture.png"
		}
	],
	"accessors":[
		{
			"bufferView":0,
			"componentType":5126,
			"count":542,
			"max":[
				2.0957822799682617,
				1.2147177457809448,
				0.9576572775840759
			],
			"min":[
				-2.4093658924102783,
				0.10483148694038391,
				-0.9576572775840759
			],
			"type":"VEC3"
		},
		{
			"bufferView":1,
			"componentType":5126,
			"count":542,
			"type":"VEC3"
		},
		{
			"bufferView":2,
			"componentType":5126,
			"count":542,
			"type":"VEC2"
		},
		{
			"bufferView":3,
			"componentType":5123,
			"count":960,
			"type":"SCALAR"
		}
	],
	"bufferViews":[
		{
			"buffer":0,
			"byteLength":6504,
			"byteOffset":0,
			"target":34962
		},
		{
			"buffer":0,
			"byteLength":6504,
			"byteOffset":6504,
			"target":34962
		},
		{
			"buffer":0,
			"byteLength":4336,
			"byteOffset":13008,
			"target":34962
		},
		{
			"buffer":0,
			"byteLength":1920,
			"byteOffset":17344,
			"target":34963
		}
	],
	"samplers":[
		{
			"magFilter":9729,
			"minFilter":9987
		}
	],
	"buffers":[
		{
			"byteLength":19264,
			"uri":"viper.bin"
		}
	]
}
