{
	"asset":{
		"generator":"Khronos glTF Blender I/O v5.0.21",
		"version":"2.0"
	},
	"scene":0,
	"scenes":[
		{
			"name":"Scene",
			"nodes":[
				0,
				1,
				2,
				3
			]
		}
	],
	"nodes":[
		{
			"mesh":0,
			"name":"Cube"
		},
		{
			"name":"Empty",
			"rotation":[
				0.002608274342492223,
				0.7071020007133484,
				0.7071019411087036,
				0.0026078748051077127
			],
			"scale":[
				-1.1032078266143799,
				-1.1032078266143799,
				-1.1032078266143799
			],
			"translation":[
				-0.28857898712158203,
				0.6656535267829895,
				0
			]
		},
		{
			"name":"Empty.001",
			"rotation":[
				0.5,
				0.5,
				-0.5,
				0.5
			],
			"scale":[
				0.5861334204673767,
				0.5861334204673767,
				0.5861334204673767
			],
			"translation":[
				0,
				0.6758116483688354,
				0.002199152484536171
			]
		},
		{
			"mesh":1,
			"name":"Cylinder",
			"rotation":[
				-0.7071068286895752,
				0,
				0,
				0.7071068286895752
			]
		}
	],
	"materials":[
		{
			"doubleSided":true,
			"name":"Material",
			"pbrMetallicRoughness":{
				"baseColorTexture":{
					"index":0
				},
				"metallicFactor":0,
				"roughnessFactor":0.5
			}
		}
	],
	"meshes":[
		{
			"name":"Cube",
			"primitives":[
				{
					"attributes":{
						"POSITION":0,
						"NORMAL":1,
						"TEXCOORD_0":2
					},
					"indices":3,
					"material":0
				}
			]
		},
		{
			"name":"Cylinder.001",
			"primitives":[
				{
					"attributes":{
						"POSITION":4,
						"NORMAL":5,
						"TEXCOORD_0":6
					},
					"indices":7
				}
			]
		}
	],
	"textures":[
		{
			"sampler":0,
			"source":0
		}
	],
	"images":[
		{
			"mimeType":"image/png",
			"name":"texture",
			"uri":"texture.png"
		}
	],
	"accessors":[
		{
			"bufferView":0,
			"componentType":5126,
			"count":288,
			"max":[
				2.0957822799682617,
				1.2147177457809448,
				0
			],
			"min":[
				-2.4093658924102783,
				0.10483148694038391,
				-0.9576572775840759
			],
			"type":"VEC3"
		},
		{
			"bufferView":1,
			"componentType":5126,
			"count":288,
			"type":"VEC3"
		},
		{
			"bufferView":2,
			"componentType":5126,
			"count":288,
			"type":"VEC2"
		},
		{
			"bufferView":3,
			"componentType":5123,
			"count":504,
			"type":"SCALAR"
		},
		{
			"bufferView":4,
			"componentType":5126,
			"count":168,
			"max":[
				1.7549582719802856,
				1.7287452220916748,
				0.7443236112594604
			],
			"min":[
				-1.7549582719802856,
				-1.7287452220916748,
				-0.10819622874259949
			],
			"type":"VEC3"
		},
		{
			"bufferView":5,
			"componentType":5126,
			"count":168,
			"type":"VEC3"
		},
		{
			"bufferView":6,
			"componentType":5126,
			"count":168,
			"type":"VEC2"
		},
		{
			"bufferView":7,
			"componentType":5123,
			"count":288,
			"type":"SCALAR"
		}
	],
	"bufferViews":[
		{
			"buffer":0,
			"byteLength":3456,
			"byteOffset":0,
			"target":34962
		},
		{
			"buffer":0,
			"byteLength":3456,
			"byteOffset":3456,
			"target":34962
		},
		{
			"buffer":0,
			"byteLength":2304,
			"byteOffset":6912,
			"target":34962
		},
		{
			"buffer":0,
			"byteLength":1008,
			"byteOffset":9216,
			"target":34963
		},
		{
			"buffer":0,
			"byteLength":2016,
			"byteOffset":10224,
			"target":34962
		},
		{
			"buffer":0,
			"byteLength":2016,
			"byteOffset":12240,
			"target":34962
		},
		{
			"buffer":0,
			"byteLength":1344,
			"byteOffset":14256,
			"target":34962
		},
		{
			"buffer":0,
			"byteLength":576,
			"byteOffset":15600,
			"target":34963
		}
	],
	"samplers":[
		{
			"magFilter":9729,
			"minFilter":9987
		}
	],
	"buffers":[
		{
			"byteLength":16176,
			"uri":"viper.bin"
		}
	]
}
