{
	"asset":{
		"generator":"Khronos glTF Blender I/O v5.0.21",
		"version":"2.0"
	},
	"scene":0,
	"scenes":[
		{
			"name":"Scene",
			"nodes":[
				0,
				1,
				2,
				3,
				4,
				5
			]
		}
	],
	"nodes":[
		{
			"mesh":0,
			"name":"Cube",
			"translation":[
				-0.04398655891418457,
				0,
				0
			]
		},
		{
			"name":"Empty",
			"rotation":[
				0,
				-0.7071066498756409,
				0.70710688829422,
				3.0908616110991716e-08
			],
			"scale":[
				0.8105214238166809,
				0.8105214238166809,
				0.8105214238166809
			],
			"translation":[
				-0.13012993335723877,
				0.7702221870422363,
				0
			]
		},
		{
			"name":"Empty.001",
			"rotation":[
				0.5,
				-0.5,
				0.5,
				0.5
			],
			"scale":[
				0.5020710825920105,
				0.5020710825920105,
				0.5020710825920105
			],
			"translation":[
				0,
				0.8056930899620056,
				0.04560527950525284
			]
		},
		{
			"mesh":1,
			"name":"splitter_aero"
		},
		{
			"mesh":2,
			"name":"angery_aero"
		},
		{
			"mesh":3,
			"name":"wing_aero",
			"scale":[
				0.17413175106048584,
				0.17413175106048584,
				0.17413175106048584
			]
		}
	],
	"materials":[
		{
			"doubleSided":true,
			"name":"Material",
			"pbrMetallicRoughness":{
				"baseColorTexture":{
					"index":0
				},
				"metallicFactor":0,
				"roughnessFactor":0.5
			}
		},
		{
			"doubleSided":true,
			"name":"black",
			"pbrMetallicRoughness":{
				"baseColorFactor":[
					0,
					0,
					0,
					1
				],
				"metallicFactor":0,
				"roughnessFactor":0.5
			}
		}
	],
	"meshes":[
		{
			"name":"Cube",
			"primitives":[
				{
					"attributes":{
						"POSITION":0,
						"NORMAL":1,
						"TEXCOORD_0":2
					},
					"indices":3,
					"material":0
				}
			]
		},
		{
			"name":"Plane",
			"primitives":[
				{
					"attributes":{
						"POSITION":4,
						"NORMAL":5,
						"TEXCOORD_0":6
					},
					"indices":7,
					"material":1
				}
			]
		},
		{
			"name":"Plane.001",
			"primitives":[
				{
					"attributes":{
						"POSITION":8,
						"NORMAL":9,
						"TEXCOORD_0":10
					},
					"indices":11,
					"material":1
				}
			]
		},
		{
			"name":"Plane.002",
			"primitives":[
				{
					"attributes":{
						"POSITION":12,
						"NORMAL":13,
						"TEXCOORD_0":14
					},
					"indices":15,
					"material":1
				}
			]
		}
	],
	"textures":[
		{
			"sampler":0,
			"source":0
		}
	],
	"images":[
		{
			"mimeType":"image/png",
			"name":"texture",
			"uri":"texture.png"
		}
	],
	"accessors":[
		{
			"bufferView":0,
			"componentType":5126,
			"count":460,
			"max":[
				1.6891214847564697,
				1.4053800106048584,
				0.8277134895324707
			],
			"min":[
				-1.694893717765808,
				0.18573686480522156,
				-0.8277134895324707
			],
			"type":"VEC3"
		},
		{
			"bufferView":1,
			"componentType":5126,
			"count":460,
			"type":"VEC3"
		},
		{
			"bufferView":2,
			"componentType":5126,
			"count":460,
			"type":"VEC2"
		},
		{
			"bufferView":3,
			"componentType":5123,
			"count":834,
			"type":"SCALAR"
		},
		{
			"bufferView":4,
			"componentType":5126,
			"count":28,
			"max":[
				-1.4980416297912598,
				0.4950910210609436,
				0.8662160038948059
			],
			"min":[
				-1.890407919883728,
				0.24095365405082703,
				0
			],
			"type":"VEC3"
		},
		{
			"bufferView":5,
			"componentType":5126,
			"count":28,
			"type":"VEC3"
		},
		{
			"bufferView":6,
			"componentType":5126,
			"count":28,
			"type":"VEC2"
		},
		{
			"bufferView":7,
			"componentType":5123,
			"count":42,
			"type":"SCALAR"
		},
		{
			"bufferView":8,
			"componentType":5126,
			"count":18,
			"max":[
				-1.4770888090133667,
				0.775629460811615,
				0.664483904838562
			],
			"min":[
				-1.6359943151474,
				0.6470814943313599,
				-0.664483904838562
			],
			"type":"VEC3"
		},
		{
			"bufferView":9,
			"componentType":5126,
			"count":18,
			"type":"VEC3"
		},
		{
			"bufferView":10,
			"componentType":5126,
			"count":18,
			"type":"VEC2"
		},
		{
			"bufferView":11,
			"componentType":5123,
			"count":18,
			"type":"SCALAR"
		},
		{
			"bufferView":12,
			"componentType":5126,
			"count":44,
			"max":[
				10.082723617553711,
				9.21780776977539,
				4.240201473236084
			],
			"min":[
				7.739314556121826,
				3.753199577331543,
				-0.104646235704422
			],
			"type":"VEC3"
		},
		{
			"bufferView":13,
			"componentType":5126,
			"count":44,
			"type":"VEC3"
		},
		{
			"bufferView":14,
			"componentType":5126,
			"count":44,
			"type":"VEC2"
		},
		{
			"bufferView":15,
			"componentType":5123,
			"count":66,
			"type":"SCALAR"
		}
	],
	"bufferViews":[
		{
			"buffer":0,
			"byteLength":5520,
			"byteOffset":0,
			"target":34962
		},
		{
			"buffer":0,
			"byteLength":5520,
			"byteOffset":5520,
			"target":34962
		},
		{
			"buffer":0,
			"byteLength":3680,
			"byteOffset":11040,
			"target":34962
		},
		{
			"buffer":0,
			"byteLength":1668,
			"byteOffset":14720,
			"target":34963
		},
		{
			"buffer":0,
			"byteLength":336,
			"byteOffset":16388,
			"target":34962
		},
		{
			"buffer":0,
			"byteLength":336,
			"byteOffset":16724,
			"target":34962
		},
		{
			"buffer":0,
			"byteLength":224,
			"byteOffset":17060,
			"target":34962
		},
		{
			"buffer":0,
			"byteLength":84,
			"byteOffset":17284,
			"target":34963
		},
		{
			"buffer":0,
			"byteLength":216,
			"byteOffset":17368,
			"target":34962
		},
		{
			"buffer":0,
			"byteLength":216,
			"byteOffset":17584,
			"target":34962
		},
		{
			"buffer":0,
			"byteLength":144,
			"byteOffset":17800,
			"target":34962
		},
		{
			"buffer":0,
			"byteLength":36,
			"byteOffset":17944,
			"target":34963
		},
		{
			"buffer":0,
			"byteLength":528,
			"byteOffset":17980,
			"target":34962
		},
		{
			"buffer":0,
			"byteLength":528,
			"byteOffset":18508,
			"target":34962
		},
		{
			"buffer":0,
			"byteLength":352,
			"byteOffset":19036,
			"target":34962
		},
		{
			"buffer":0,
			"byteLength":132,
			"byteOffset":19388,
			"target":34963
		}
	],
	"samplers":[
		{
			"magFilter":9729,
			"minFilter":9987
		}
	],
	"buffers":[
		{
			"byteLength":19520,
			"uri":"twingo.bin"
		}
	]
}
