{
	"asset":{
		"generator":"Khronos glTF Blender I/O v5.0.21",
		"version":"2.0"
	},
	"scene":0,
	"scenes":[
		{
			"name":"Scene",
			"nodes":[
				0,
				1,
				2,
				3,
				4
			]
		}
	],
	"nodes":[
		{
			"mesh":0,
			"name":"Cube",
			"translation":[
				1.1310104131698608,
				1.185736894607544,
				0
			]
		},
		{
			"name":"Empty",
			"rotation":[
				0,
				-0.7071066498756409,
				0.70710688829422,
				3.090861255827804e-08
			],
			"scale":[
				0.9254162907600403,
				0.9254162907600403,
				0.9254162907600403
			],
			"translation":[
				-0.042564909905195236,
				0.7734652757644653,
				0
			]
		},
		{
			"name":"Empty.001",
			"rotation":[
				0.5,
				0.5,
				-0.5,
				0.5
			],
			"scale":[
				0.45529550313949585,
				0.45529550313949585,
				0.45529550313949585
			],
			"translation":[
				0,
				0.7769789695739746,
				0.012668134644627571
			]
		},
		{
			"name":"Empty.002",
			"rotation":[
				0.5,
				-0.5,
				0.5,
				0.5
			],
			"scale":[
				0.5062544345855713,
				0.5062544345855713,
				0.5062544345855713
			],
			"translation":[
				0,
				0.7542232275009155,
				0.020269015803933144
			]
		},
		{
			"name":"Empty.003",
			"rotation":[
				0,
				-0.7071067094802856,
				0,
				0.7071068286895752
			]
		}
	],
	"materials":[
		{
			"doubleSided":true,
			"name":"Material.001",
			"pbrMetallicRoughness":{
				"baseColorTexture":{
					"index":0
				},
				"metallicFactor":0,
				"roughnessFactor":0.5
			}
		}
	],
	"meshes":[
		{
			"name":"Cube.001",
			"primitives":[
				{
					"attributes":{
						"POSITION":0,
						"NORMAL":1,
						"TEXCOORD_0":2
					},
					"indices":3,
					"material":0
				}
			]
		}
	],
	"textures":[
		{
			"sampler":0,
			"source":0
		}
	],
	"images":[
		{
			"mimeType":"image/png",
			"name":"texture",
			"uri":"texture.png"
		}
	],
	"accessors":[
		{
			"bufferView":0,
			"componentType":5126,
			"count":539,
			"max":[
				0.9817008972167969,
				0.325042188167572,
				0.9436972141265869
			],
			"min":[
				-3.316746950149536,
				-1.0486456155776978,
				-0.9436972141265869
			],
			"type":"VEC3"
		},
		{
			"bufferView":1,
			"componentType":5126,
			"count":539,
			"type":"VEC3"
		},
		{
			"bufferView":2,
			"componentType":5126,
			"count":539,
			"type":"VEC2"
		},
		{
			"bufferView":3,
			"componentType":5123,
			"count":1026,
			"type":"SCALAR"
		}
	],
	"bufferViews":[
		{
			"buffer":0,
			"byteLength":6468,
			"byteOffset":0,
			"target":34962
		},
		{
			"buffer":0,
			"byteLength":6468,
			"byteOffset":6468,
			"target":34962
		},
		{
			"buffer":0,
			"byteLength":4312,
			"byteOffset":12936,
			"target":34962
		},
		{
			"buffer":0,
			"byteLength":2052,
			"byteOffset":17248,
			"target":34963
		}
	],
	"samplers":[
		{
			"magFilter":9729,
			"minFilter":9987
		}
	],
	"buffers":[
		{
			"byteLength":19300,
			"uri":"focus.bin"
		}
	]
}
